<svg width="225" height="126" viewBox="0 0 225 126" fill="none" xmlns="http://www.w3.org/2000/svg">
<path d="M218.291 62.8032C218.291 66.8596 215.487 70.829 210.16 74.5256C204.848 78.2119 197.129 81.5518 187.546 84.3647C168.385 89.9888 141.886 93.4743 112.594 93.4743C83.3026 93.4743 56.803 89.9888 37.6426 84.3647C28.059 81.5518 20.3399 78.2119 15.028 74.5256C9.70116 70.829 6.89746 66.8596 6.89746 62.8032C6.89746 58.7468 9.70116 54.7773 15.028 51.0807C20.3399 47.3944 28.059 44.0546 37.6426 41.2416C56.803 35.6175 83.3026 32.132 112.594 32.132C141.886 32.132 168.385 35.6175 187.546 41.2416C197.129 44.0546 204.848 47.3944 210.16 51.0807C215.487 54.7773 218.291 58.7468 218.291 62.8032Z" stroke="black"/>
<path d="M210.171 28.9429C212.048 32.7063 211.279 37.2773 208.067 42.3911C204.862 47.4946 199.275 53.0495 191.724 58.7158C176.627 70.0448 153.77 81.7515 126.728 91.1353C99.6867 100.519 73.6186 105.79 53.3421 106.736C43.2006 107.209 34.5383 106.599 27.9385 104.898C21.3254 103.194 16.8956 100.427 15.0182 96.6633C13.1409 92.9 13.9101 88.329 17.1219 83.2152C20.3272 78.1117 25.9139 72.5568 33.4648 66.8905C48.5617 55.5615 71.4193 43.8548 98.4608 34.471C125.502 25.0873 151.57 19.8162 171.847 18.8701C181.988 18.397 190.651 19.0073 197.25 20.7083C203.864 22.4127 208.293 25.1796 210.171 28.9429Z" stroke="black"/>
<path d="M95.7155 59.5977H92.8903V50.8704H95.805C96.6601 50.8704 97.3945 51.0451 98.0082 51.3946C98.6218 51.7412 99.092 52.2397 99.4187 52.8903C99.7482 53.538 99.913 54.315 99.913 55.2213C99.913 56.1304 99.7468 56.9116 99.4144 57.565C99.0849 58.2184 98.6076 58.7213 97.9826 59.0735C97.3576 59.423 96.6019 59.5977 95.7155 59.5977ZM94.207 58.4471H95.6431C96.3079 58.4471 96.8604 58.3221 97.3008 58.0721C97.7411 57.8193 98.0707 57.4542 98.2894 56.9769C98.5082 56.4968 98.6175 55.9116 98.6175 55.2213C98.6175 54.5366 98.5082 53.9556 98.2894 53.4784C98.0735 53.0011 97.7511 52.6389 97.3221 52.3917C96.8931 52.1446 96.3604 52.021 95.7241 52.021H94.207V58.4471ZM102.867 50.8704V59.5977H101.55V50.8704H102.867ZM109.545 53.163C109.499 52.7596 109.312 52.4471 108.982 52.2255C108.653 52.0011 108.238 51.8889 107.738 51.8889C107.38 51.8889 107.07 51.9457 106.809 52.0593C106.548 52.1701 106.344 52.3235 106.2 52.5196C106.058 52.7127 105.986 52.9329 105.986 53.1801C105.986 53.3875 106.035 53.5664 106.131 53.717C106.231 53.8676 106.36 53.994 106.519 54.0963C106.681 54.1957 106.854 54.2795 107.039 54.3477C107.224 54.413 107.401 54.467 107.572 54.5096L108.424 54.7312C108.702 54.7994 108.988 54.8917 109.281 55.0082C109.573 55.1247 109.844 55.2781 110.094 55.4684C110.344 55.6588 110.546 55.8946 110.7 56.1758C110.856 56.4571 110.934 56.7937 110.934 57.1858C110.934 57.6801 110.806 58.119 110.55 58.5025C110.298 58.886 109.93 59.1886 109.447 59.4102C108.967 59.6318 108.386 59.7426 107.704 59.7426C107.05 59.7426 106.485 59.6389 106.008 59.4315C105.531 59.2241 105.157 58.9301 104.887 58.5494C104.617 58.1659 104.468 57.7113 104.44 57.1858H105.761C105.786 57.5011 105.888 57.7639 106.067 57.9741C106.249 58.1815 106.481 58.3363 106.762 58.4386C107.046 58.538 107.357 58.5877 107.695 58.5877C108.067 58.5877 108.398 58.5295 108.688 58.413C108.981 58.2937 109.211 58.1289 109.379 57.9187C109.546 57.7056 109.63 57.4571 109.63 57.173C109.63 56.9144 109.556 56.7028 109.408 56.538C109.263 56.3733 109.066 56.2369 108.816 56.1289C108.569 56.021 108.289 55.9258 107.977 55.8434L106.945 55.5622C106.246 55.3718 105.692 55.092 105.283 54.7227C104.877 54.3534 104.674 53.8647 104.674 53.2568C104.674 52.7539 104.81 52.315 105.083 51.94C105.356 51.565 105.725 51.2738 106.191 51.0664C106.657 50.8562 107.183 50.7511 107.768 50.7511C108.359 50.7511 108.88 50.8548 109.332 51.0622C109.786 51.2696 110.144 51.5551 110.406 51.9187C110.667 52.2795 110.803 52.6943 110.815 53.163H109.545ZM119.756 53.7085H118.426C118.375 53.4244 118.28 53.1744 118.141 52.9585C118.002 52.7426 117.831 52.5593 117.63 52.4088C117.428 52.2582 117.202 52.1446 116.952 52.0679C116.705 51.9912 116.442 51.9528 116.164 51.9528C115.661 51.9528 115.211 52.0792 114.813 52.3321C114.418 52.5849 114.105 52.9556 113.875 53.4443C113.648 53.9329 113.534 54.5295 113.534 55.2341C113.534 55.9443 113.648 56.5437 113.875 57.0323C114.105 57.521 114.419 57.8903 114.817 58.1403C115.215 58.3903 115.662 58.5153 116.159 58.5153C116.435 58.5153 116.696 58.4784 116.944 58.4045C117.194 58.3278 117.419 58.2156 117.621 58.0679C117.823 57.9201 117.993 57.7397 118.132 57.5267C118.274 57.3108 118.373 57.0636 118.426 56.7852L119.756 56.7894C119.685 57.2184 119.547 57.6133 119.343 57.9741C119.141 58.3321 118.881 58.6417 118.563 58.9031C118.248 59.1616 117.887 59.3619 117.48 59.5039C117.074 59.646 116.631 59.717 116.151 59.717C115.395 59.717 114.722 59.538 114.131 59.1801C113.54 58.8193 113.074 58.3037 112.733 57.6332C112.395 56.9627 112.226 56.163 112.226 55.2341C112.226 54.3022 112.397 53.5025 112.738 52.8349C113.078 52.1644 113.544 51.6502 114.135 51.2923C114.726 50.9315 115.398 50.7511 116.151 50.7511C116.614 50.7511 117.046 50.8179 117.446 50.9514C117.85 51.0821 118.212 51.2752 118.533 51.5309C118.854 51.7838 119.12 52.0934 119.33 52.4599C119.54 52.8235 119.682 53.2397 119.756 53.7085ZM126.944 50.8704H128.265V56.6105C128.265 57.2213 128.121 57.7625 127.835 58.2341C127.548 58.7028 127.144 59.0721 126.624 59.342C126.104 59.6091 125.495 59.7426 124.796 59.7426C124.1 59.7426 123.492 59.6091 122.972 59.342C122.452 59.0721 122.049 58.7028 121.762 58.2341C121.475 57.7625 121.332 57.2213 121.332 56.6105V50.8704H122.648V56.5039C122.648 56.8988 122.735 57.2497 122.908 57.5565C123.085 57.8633 123.333 58.1048 123.654 58.2809C123.975 58.4542 124.356 58.5409 124.796 58.5409C125.239 58.5409 125.621 58.4542 125.942 58.2809C126.266 58.1048 126.513 57.8633 126.684 57.5565C126.857 57.2497 126.944 56.8988 126.944 56.5039V50.8704ZM134.939 53.163C134.894 52.7596 134.706 52.4471 134.377 52.2255C134.047 52.0011 133.632 51.8889 133.132 51.8889C132.774 51.8889 132.465 51.9457 132.203 52.0593C131.942 52.1701 131.739 52.3235 131.594 52.5196C131.452 52.7127 131.381 52.9329 131.381 53.1801C131.381 53.3875 131.429 53.5664 131.526 53.717C131.625 53.8676 131.755 53.994 131.914 54.0963C132.076 54.1957 132.249 54.2795 132.434 54.3477C132.618 54.413 132.796 54.467 132.966 54.5096L133.819 54.7312C134.097 54.7994 134.382 54.8917 134.675 55.0082C134.968 55.1247 135.239 55.2781 135.489 55.4684C135.739 55.6588 135.941 55.8946 136.094 56.1758C136.25 56.4571 136.328 56.7937 136.328 57.1858C136.328 57.6801 136.201 58.119 135.945 58.5025C135.692 58.886 135.324 59.1886 134.841 59.4102C134.361 59.6318 133.78 59.7426 133.098 59.7426C132.445 59.7426 131.88 59.6389 131.402 59.4315C130.925 59.2241 130.551 58.9301 130.282 58.5494C130.012 58.1659 129.863 57.7113 129.834 57.1858H131.155C131.181 57.5011 131.283 57.7639 131.462 57.9741C131.644 58.1815 131.875 58.3363 132.157 58.4386C132.441 58.538 132.752 58.5877 133.09 58.5877C133.462 58.5877 133.793 58.5295 134.083 58.413C134.375 58.2937 134.605 58.1289 134.773 57.9187C134.941 57.7056 135.024 57.4571 135.024 57.173C135.024 56.9144 134.951 56.7028 134.803 56.538C134.658 56.3733 134.461 56.2369 134.211 56.1289C133.963 56.021 133.684 55.9258 133.371 55.8434L132.34 55.5622C131.641 55.3718 131.087 55.092 130.678 54.7227C130.272 54.3534 130.069 53.8647 130.069 53.2568C130.069 52.7539 130.205 52.315 130.478 51.94C130.75 51.565 131.12 51.2738 131.586 51.0664C132.051 50.8562 132.577 50.7511 133.162 50.7511C133.753 50.7511 134.274 50.8548 134.726 51.0622C135.181 51.2696 135.539 51.5551 135.8 51.9187C136.061 52.2795 136.198 52.6943 136.209 53.163H134.939ZM142.662 53.163C142.616 52.7596 142.429 52.4471 142.099 52.2255C141.77 52.0011 141.355 51.8889 140.855 51.8889C140.497 51.8889 140.187 51.9457 139.926 52.0593C139.665 52.1701 139.462 52.3235 139.317 52.5196C139.175 52.7127 139.104 52.9329 139.104 53.1801C139.104 53.3875 139.152 53.5664 139.249 53.717C139.348 53.8676 139.477 53.994 139.636 54.0963C139.798 54.1957 139.972 54.2795 140.156 54.3477C140.341 54.413 140.518 54.467 140.689 54.5096L141.541 54.7312C141.82 54.7994 142.105 54.8917 142.398 55.0082C142.69 55.1247 142.962 55.2781 143.212 55.4684C143.462 55.6588 143.663 55.8946 143.817 56.1758C143.973 56.4571 144.051 56.7937 144.051 57.1858C144.051 57.6801 143.923 58.119 143.668 58.5025C143.415 58.886 143.047 59.1886 142.564 59.4102C142.084 59.6318 141.503 59.7426 140.821 59.7426C140.168 59.7426 139.602 59.6389 139.125 59.4315C138.648 59.2241 138.274 58.9301 138.004 58.5494C137.734 58.1659 137.585 57.7113 137.557 57.1858H138.878C138.903 57.5011 139.006 57.7639 139.185 57.9741C139.366 58.1815 139.598 58.3363 139.879 58.4386C140.163 58.538 140.474 58.5877 140.812 58.5877C141.185 58.5877 141.516 58.5295 141.805 58.413C142.098 58.2937 142.328 58.1289 142.496 57.9187C142.663 57.7056 142.747 57.4571 142.747 57.173C142.747 56.9144 142.673 56.7028 142.526 56.538C142.381 56.3733 142.183 56.2369 141.933 56.1289C141.686 56.021 141.406 55.9258 141.094 55.8434L140.062 55.5622C139.364 55.3718 138.81 55.092 138.401 54.7227C137.994 54.3534 137.791 53.8647 137.791 53.2568C137.791 52.7539 137.928 52.315 138.2 51.94C138.473 51.565 138.842 51.2738 139.308 51.0664C139.774 50.8562 140.3 50.7511 140.885 50.7511C141.476 50.7511 141.997 50.8548 142.449 51.0622C142.903 51.2696 143.261 51.5551 143.523 51.9187C143.784 52.2795 143.92 52.6943 143.932 53.163H142.662ZM79.288 67.0039V65.8704H86.0422V67.0039H83.3192V74.5977H82.0067V67.0039H79.288ZM87.5348 74.5977V65.8704H88.8516V69.663H93.2024V65.8704H94.5234V74.5977H93.2024V70.7923H88.8516V74.5977H87.5348ZM96.441 74.5977V65.8704H101.913V67.0039H97.7578V69.663H101.627V70.7923H97.7578V73.4642H101.964V74.5977H96.441ZM106.847 74.5977V65.8704H109.958C110.637 65.8704 111.2 65.994 111.646 66.2412C112.092 66.4883 112.425 66.8264 112.647 67.2554C112.869 67.6815 112.979 68.1616 112.979 68.6957C112.979 69.2326 112.867 69.7156 112.643 70.1446C112.421 70.5707 112.086 70.9088 111.637 71.1588C111.191 71.4059 110.63 71.5295 109.954 71.5295H107.815V70.413H109.835C110.263 70.413 110.611 70.3392 110.879 70.1914C111.146 70.0409 111.342 69.8363 111.467 69.5778C111.592 69.3193 111.654 69.0252 111.654 68.6957C111.654 68.3662 111.592 68.0735 111.467 67.8179C111.342 67.5622 111.144 67.3619 110.874 67.217C110.607 67.0721 110.255 66.9997 109.817 66.9997H108.164V74.5977H106.847ZM114.523 74.5977V65.8704H117.634C118.31 65.8704 118.871 65.9869 119.317 66.2198C119.766 66.4528 120.101 66.7752 120.323 67.1872C120.544 67.5963 120.655 68.0693 120.655 68.6062C120.655 69.1403 120.543 69.6105 120.319 70.0167C120.097 70.4201 119.762 70.7341 119.313 70.9585C118.867 71.1829 118.306 71.2951 117.63 71.2951H115.273V70.1616H117.51C117.936 70.1616 118.283 70.1005 118.55 69.9784C118.82 69.8562 119.017 69.6787 119.142 69.4457C119.267 69.2127 119.33 68.9329 119.33 68.6062C119.33 68.2767 119.266 67.9912 119.138 67.7497C119.013 67.5082 118.816 67.3235 118.546 67.1957C118.279 67.065 117.928 66.9997 117.493 66.9997H115.84V74.5977H114.523ZM118.831 70.6602L120.988 74.5977H119.488L117.374 70.6602H118.831ZM129.838 70.2341C129.838 71.1659 129.668 71.967 129.327 72.6375C128.986 73.3051 128.519 73.8193 127.925 74.1801C127.334 74.538 126.662 74.717 125.909 74.717C125.154 74.717 124.479 74.538 123.885 74.1801C123.294 73.8193 122.828 73.3037 122.488 72.6332C122.147 71.9627 121.976 71.163 121.976 70.2341C121.976 69.3022 122.147 68.5025 122.488 67.8349C122.828 67.1644 123.294 66.6502 123.885 66.2923C124.479 65.9315 125.154 65.7511 125.909 65.7511C126.662 65.7511 127.334 65.9315 127.925 66.2923C128.519 66.6502 128.986 67.1644 129.327 67.8349C129.668 68.5025 129.838 69.3022 129.838 70.2341ZM128.534 70.2341C128.534 69.5238 128.419 68.9258 128.189 68.44C127.962 67.9514 127.649 67.5821 127.252 67.3321C126.857 67.0792 126.409 66.9528 125.909 66.9528C125.407 66.9528 124.958 67.0792 124.563 67.3321C124.168 67.5821 123.855 67.9514 123.625 68.44C123.398 68.9258 123.284 69.5238 123.284 70.2341C123.284 70.9443 123.398 71.5437 123.625 72.0323C123.855 72.5181 124.168 72.8875 124.563 73.1403C124.958 73.3903 125.407 73.5153 125.909 73.5153C126.409 73.5153 126.857 73.3903 127.252 73.1403C127.649 72.8875 127.962 72.5181 128.189 72.0323C128.419 71.5437 128.534 70.9443 128.534 70.2341ZM134.872 65.8704H136.185V72.0579C136.185 72.6176 136.074 73.0963 135.852 73.494C135.634 73.8917 135.325 74.1957 134.928 74.4059C134.53 74.6133 134.064 74.717 133.53 74.717C133.038 74.717 132.597 74.6275 132.205 74.4485C131.815 74.2696 131.507 74.0096 131.28 73.6687C131.055 73.325 130.943 72.9073 130.943 72.4159H132.251C132.251 72.6573 132.307 72.8662 132.418 73.0423C132.531 73.2184 132.686 73.3562 132.882 73.4556C133.081 73.5522 133.308 73.6005 133.564 73.6005C133.842 73.6005 134.078 73.5423 134.271 73.4258C134.467 73.3065 134.616 73.1318 134.719 72.9017C134.821 72.6716 134.872 72.3903 134.872 72.0579V65.8704ZM138.101 74.5977V65.8704H143.573V67.0039H139.418V69.663H143.287V70.7923H139.418V73.4642H143.624V74.5977H138.101ZM152.58 68.7085H151.251C151.2 68.4244 151.104 68.1744 150.965 67.9585C150.826 67.7426 150.656 67.5593 150.454 67.4088C150.252 67.2582 150.026 67.1446 149.776 67.0679C149.529 66.9912 149.266 66.9528 148.988 66.9528C148.485 66.9528 148.035 67.0792 147.637 67.3321C147.242 67.5849 146.93 67.9556 146.7 68.4443C146.472 68.9329 146.359 69.5295 146.359 70.2341C146.359 70.9443 146.472 71.5437 146.7 72.0323C146.93 72.521 147.244 72.8903 147.641 73.1403C148.039 73.3903 148.487 73.5153 148.984 73.5153C149.259 73.5153 149.521 73.4784 149.768 73.4045C150.018 73.3278 150.244 73.2156 150.445 73.0679C150.647 72.9201 150.817 72.7397 150.957 72.5267C151.099 72.3108 151.197 72.0636 151.251 71.7852L152.58 71.7894C152.509 72.2184 152.371 72.6133 152.167 72.9741C151.965 73.3321 151.705 73.6417 151.387 73.9031C151.072 74.1616 150.711 74.3619 150.305 74.5039C149.898 74.646 149.455 74.717 148.975 74.717C148.219 74.717 147.546 74.538 146.955 74.1801C146.364 73.8193 145.898 73.3037 145.558 72.6332C145.219 71.9627 145.05 71.163 145.05 70.2341C145.05 69.3022 145.221 68.5025 145.562 67.8349C145.903 67.1644 146.369 66.6502 146.96 66.2923C147.55 65.9315 148.222 65.7511 148.975 65.7511C149.438 65.7511 149.87 65.8179 150.271 65.9514C150.674 66.0821 151.036 66.2752 151.357 66.5309C151.678 66.7838 151.944 67.0934 152.154 67.4599C152.364 67.8235 152.506 68.2397 152.58 68.7085ZM153.725 67.0039V65.8704H160.48V67.0039H157.757V74.5977H156.444V67.0039H153.725Z" fill="black"/>
</svg>
